<svg xmlns="http://www.w3.org/2000/svg" width="200" height="182" viewBox="0 0 200 182">
  <defs>
    <style>
      .cls-1 {
        fill: #42251b;
        fill-rule: evenodd;
      }
    </style>
  </defs>
  <path id="logo" class="cls-1" d="M1413.69,167.994l5.94-4.619,10.71,16.05h5.56l-12.56-18.967,18.51-14.388h-6.79l-20.29,15.837,2.8-15.837h-4.61l-5.9,33.355h4.61Zm76.28-17.647,0.76-4.277h-23.57l-5.9,33.355h23.79l0.76-4.276h-19.19l1.92-10.865h17.84l0.75-4.277H1469.3l1.71-9.66h18.96Zm31.47,3.32,13.37,25.758h4.18l5.89-33.355h-4.6l-4.52,25.547-13.27-25.547h-4.31l-5.89,33.355h4.6Zm38.97-7.6h-4.34l-2.21,12.493h4.35Zm39.08,5.312a7.83,7.83,0,0,0-2.43-3.526,10.264,10.264,0,0,0-3.9-1.935,18.509,18.509,0,0,0-8.87-.1,14.577,14.577,0,0,0-3.99,1.563,11.088,11.088,0,0,0-3.26,2.874,9.712,9.712,0,0,0-1.86,4.341,7.124,7.124,0,0,0,.39,4.389,6.9,6.9,0,0,0,2.44,2.81,12.442,12.442,0,0,0,3.53,1.571c1.23,0.351,2.51.663,3.81,0.928,1.27,0.254,2.51.532,3.68,0.826a11.765,11.765,0,0,1,2.86,1.079,3.9,3.9,0,0,1,1.56,1.473,3.491,3.491,0,0,1,.2,2.28,5.784,5.784,0,0,1-1.19,2.734,8.043,8.043,0,0,1-2.24,1.848,9.738,9.738,0,0,1-2.74,1.023,13.758,13.758,0,0,1-2.77.316,16.641,16.641,0,0,1-3.99-.456,6.992,6.992,0,0,1-2.82-1.346,4.754,4.754,0,0,1-1.49-2.25,6.9,6.9,0,0,1,.05-3.582l0.36-1.615h-4.66l-0.21,1.073a11.518,11.518,0,0,0,.13,5.681,8.475,8.475,0,0,0,2.61,3.985,10.857,10.857,0,0,0,4.37,2.165,21.876,21.876,0,0,0,5.36.622,18.81,18.81,0,0,0,4.09-.484,14.516,14.516,0,0,0,4.16-1.633,12.562,12.562,0,0,0,3.46-2.973,9.953,9.953,0,0,0,2.04-4.648,7.7,7.7,0,0,0-.35-4.48,6.959,6.959,0,0,0-2.44-2.965,12.361,12.361,0,0,0-3.51-1.643c-1.23-.368-2.53-0.689-3.84-0.953-1.24-.254-2.48-0.526-3.7-0.809a12.224,12.224,0,0,1-2.87-1.024,3.776,3.776,0,0,1-1.55-1.389,3,3,0,0,1-.21-2.094,5.39,5.39,0,0,1,1.1-2.55,6.992,6.992,0,0,1,2.07-1.7,9.4,9.4,0,0,1,2.6-.923,13.9,13.9,0,0,1,2.61-.277,12.585,12.585,0,0,1,3.48.444,6.051,6.051,0,0,1,2.34,1.206,4.418,4.418,0,0,1,1.26,1.887,6.467,6.467,0,0,1,.18,2.841l-0.2,1.5h4.59l0.15-1.158A10.952,10.952,0,0,0,1599.49,151.382Zm-171.86,55.747a12.5,12.5,0,0,1-1.59,3.758,14.49,14.49,0,0,1-2.74,3.231,13.532,13.532,0,0,1-3.55,2.233,10.335,10.335,0,0,1-8.48-.191,8.073,8.073,0,0,1-3.02-2.684,9.966,9.966,0,0,1-1.51-4.051,15.819,15.819,0,0,1,.12-5.16,18.67,18.67,0,0,1,1.73-5.225,16.224,16.224,0,0,1,3.08-4.235,14.451,14.451,0,0,1,4.21-2.857,12.454,12.454,0,0,1,5.11-1.046,10.046,10.046,0,0,1,3.19.49,7.4,7.4,0,0,1,2.47,1.382,6.008,6.008,0,0,1,1.59,2.144,6.807,6.807,0,0,1,.53,2.9l-0.02,1.347h4.38l0.18-1.1a5.145,5.145,0,0,0,0-1.162,10.587,10.587,0,0,0-.33-2.145,11.86,11.86,0,0,0-1.02-2.647,9.515,9.515,0,0,0-2.13-2.678,11.09,11.09,0,0,0-3.47-2.013,14.516,14.516,0,0,0-5.09-.795,17.964,17.964,0,0,0-6.97,1.35,18.387,18.387,0,0,0-5.66,3.684,20.328,20.328,0,0,0-4.06,5.468,23.192,23.192,0,0,0-2.24,6.677,20.2,20.2,0,0,0-.12,6.743,13.588,13.588,0,0,0,2.21,5.66,11.729,11.729,0,0,0,4.55,3.853,15.755,15.755,0,0,0,12.08.346,17.045,17.045,0,0,0,4.82-2.866,19.76,19.76,0,0,0,3.8-4.309,19.109,19.109,0,0,0,2.43-5.454l0.46-1.666h-4.7Zm53.27,13.584h4.76l-7.42-33.356h-3.92l-19.45,33.356h5.11l5.7-9.851h13.05Zm-12.8-14.128,7.17-12.482,2.58,12.482h-9.75Zm69.65-5.291h-15.83l1.71-9.66h17.57l0.76-4.277h-22.18l-5.9,33.356h4.61l2.67-15.142H1537Zm28.16,19.419h23.79l0.75-4.277h-19.18l1.92-10.865h17.84l0.75-4.277h-17.83l1.7-9.66h18.97l0.76-4.277h-23.57ZM1400,229.946h11.64l-5.53,31.267h2.04l5.53-31.267h11.69l0.31-1.758h-25.37Zm62.93,2.475a11.139,11.139,0,0,0-4.29-3.678,14.154,14.154,0,0,0-6.39-1.341,17.526,17.526,0,0,0-6.89,1.341,18.2,18.2,0,0,0-5.62,3.678,20.527,20.527,0,0,0-4.05,5.5,23.829,23.829,0,0,0-2.27,6.777,20.417,20.417,0,0,0-.13,6.776,13.3,13.3,0,0,0,2.11,5.5,11.129,11.129,0,0,0,4.31,3.678,14.346,14.346,0,0,0,6.42,1.341,17.392,17.392,0,0,0,6.87-1.341,18.3,18.3,0,0,0,5.59-3.678,20.731,20.731,0,0,0,4.06-5.5,23.794,23.794,0,0,0,2.26-6.776,20.159,20.159,0,0,0,.13-6.777A13.309,13.309,0,0,0,1462.93,232.421Zm-0.06,12.28a21.716,21.716,0,0,1-1.99,6.013,18.751,18.751,0,0,1-3.56,4.926,16.759,16.759,0,0,1-4.88,3.353,14.343,14.343,0,0,1-6,1.249,11.623,11.623,0,0,1-5.57-1.249,9.963,9.963,0,0,1-3.72-3.353,11.989,11.989,0,0,1-1.82-4.926,18.526,18.526,0,0,1,.13-6.013,21.727,21.727,0,0,1,1.99-6.013,18.751,18.751,0,0,1,3.56-4.926,16.767,16.767,0,0,1,4.91-3.353,14.469,14.469,0,0,1,6.02-1.249,11.513,11.513,0,0,1,5.55,1.249,10.135,10.135,0,0,1,3.7,3.353,12.279,12.279,0,0,1,1.82,4.926A18.539,18.539,0,0,1,1462.87,244.7Zm43.91-16.513L1482.6,247.2l3.36-19.011h-2.04l-5.84,33.025h2.04l2.06-11.655,7.97-6.245,11.82,17.9h2.55l-12.64-19.287,17.55-13.738h-2.65ZM1533,245.672l-8.87-17.484h-2.32l9.82,19.2-2.44,13.829h2.04l2.44-13.829,16.7-19.2h-2.27Zm54.54-13.251a11.139,11.139,0,0,0-4.29-3.678,14.169,14.169,0,0,0-6.4-1.341,17.562,17.562,0,0,0-6.89,1.341,18.275,18.275,0,0,0-5.61,3.678,20.774,20.774,0,0,0-4.06,5.5,23.811,23.811,0,0,0-2.26,6.777,20.154,20.154,0,0,0-.13,6.776,13.162,13.162,0,0,0,2.11,5.5,11.057,11.057,0,0,0,4.31,3.678,14.286,14.286,0,0,0,6.42,1.341,17.428,17.428,0,0,0,6.87-1.341,18.378,18.378,0,0,0,5.58-3.678,20.516,20.516,0,0,0,4.06-5.5,23.812,23.812,0,0,0,2.27-6.776,20.693,20.693,0,0,0,.13-6.777A13.309,13.309,0,0,0,1587.54,232.421Zm-0.06,12.28a21.716,21.716,0,0,1-1.99,6.013,18.782,18.782,0,0,1-3.57,4.926,16.759,16.759,0,0,1-4.88,3.353,14.3,14.3,0,0,1-5.99,1.249,11.636,11.636,0,0,1-5.58-1.249,10.118,10.118,0,0,1-3.72-3.353,12.279,12.279,0,0,1-1.82-4.926,18.54,18.54,0,0,1,.14-6.013,21.4,21.4,0,0,1,1.99-6.013,18.751,18.751,0,0,1,3.56-4.926,16.636,16.636,0,0,1,4.91-3.353,14.422,14.422,0,0,1,6.01-1.249,11.527,11.527,0,0,1,5.56,1.249,10.1,10.1,0,0,1,3.69,3.353,12.132,12.132,0,0,1,1.82,4.926A18.526,18.526,0,0,1,1587.48,244.7ZM1513.53,88.5c-0.28-.1-0.56-0.2-0.85-0.29C1512.97,88.3,1513.25,88.4,1513.53,88.5Zm-0.59.378c-0.28-.1-0.56-0.2-0.85-0.289C1512.37,88.676,1512.66,88.778,1512.94,88.875Zm-0.59.379c-0.28-.1-0.57-0.2-0.85-0.29C1511.78,89.054,1512.06,89.157,1512.35,89.254Zm-0.21,7.052c0.95,1.569,1.88,3.141,2.81,4.718,1.86,3.156,3.69,6.323,5.41,9.557s3.35,6.516,4.83,9.877c0.73,1.683,1.43,3.384,2.03,5.127,0.19,0.52.36,1.046,0.52,1.576,0.11,0.353.22,0.707,0.31,1.065,0.1,0.422.32,1.444,0.39,1.877l-0.06-.5v-0.02c-0.06-.447-0.15-0.884-0.24-1.319,0-.021-0.01-0.042-0.01-0.063-0.21-.909-0.47-1.8-0.76-2.679-0.6-1.747-1.3-3.451-2.03-5.135-1.48-3.366-3.11-6.65-4.83-9.886s-3.56-6.405-5.41-9.561q-1.395-2.367-2.81-4.72l-2.92-4.653Zm15.66,33.224-0.06-.369v-0.049a0.021,0.021,0,0,1-.01-0.02c-0.03-.131-0.05-0.26-0.08-0.39l-0.03-.116c-0.03-.108-0.05-0.215-0.08-0.323-0.01-.051-0.02-0.1-0.03-0.149-0.06-.233-0.13-0.459-0.19-0.689a2,2,0,0,1-.07-0.229c-0.06-.2-0.11-0.4-0.18-0.6-0.2-.541-0.38-1.085-0.6-1.616l-0.04-.1-0.28-.7-0.33-.792c-0.89-2.11-1.87-4.179-2.88-6.229s-2.05-4.08-3.12-6.1c-0.53-1.009-1.07-2.014-1.61-3.018l-1.72-2.961,1.57,3.044c0.55,1,1.08,2.008,1.62,3.017,1.06,2.017,2.11,4.045,3.12,6.094s1.98,4.116,2.87,6.223l0.11,0.267,0.22,0.524,0.32,0.8c0.2,0.5.38,1.009,0.56,1.517a0.379,0.379,0,0,0,.04.094c0.1,0.265.19,0.541,0.28,0.811,0.03,0.093.07,0.187,0.1,0.28,0.06,0.178.12,0.356,0.17,0.54,0.02,0.092.05,0.185,0.07,0.277a0.564,0.564,0,0,1,.04.12c0.04,0.131.07,0.262,0.11,0.4a0.066,0.066,0,0,0,.01.042v0.029l0.07,0.372,0.02,0.055h0v0.007l0.07,0.308-0.05-.313Zm-5.19,3.677a33.061,33.061,0,0,0,8.16-1.845,22.378,22.378,0,0,0,6.22-3.274,0.684,0.684,0,0,0,.31-0.481c-0.04-.415-0.28-0.452-0.73-0.106a17.811,17.811,0,0,1-5.34,3,26.782,26.782,0,0,1-3.66,1.1,3.745,3.745,0,0,0,1.14-.5,3.973,3.973,0,0,0,.41-0.292,5.58,5.58,0,0,0,1.67-2.45c0.1-.288.23-0.629,0.38-1.022,0.09-.218.18-0.452,0.28-0.7,0.15-.382.32-0.8,0.5-1.267,0.23-.544.47-1.1,0.72-1.647,0.2-.462.39-0.9,0.57-1.326,0.36-.849.72-1.6,0.99-2.154,0.18-.374.31-0.643,0.38-0.811a31.38,31.38,0,0,0,.94-3.139l0.02-.1a15.364,15.364,0,0,0,.53-3.068,19.156,19.156,0,0,0-.18-3.094,21.509,21.509,0,0,0-.57-2.988l-0.07-.279a23.518,23.518,0,0,0-.78-2.613c-0.32-.843-0.72-1.7-1.21-2.729-0.44-.908-0.92-1.869-1.44-2.753-0.58-.966-1.1-1.829-1.68-2.617a14.979,14.979,0,0,0-1.5-1.688c-0.2-.21-0.4-0.416-0.6-0.624s-0.37-.411-0.55-0.613a12.655,12.655,0,0,0-3.67-3.042c-0.2-.126-0.4-0.249-0.6-0.373-0.32-.207-0.63-0.417-0.93-0.62a15.422,15.422,0,0,0-1.77-1.09c-0.72-.349-1.41-0.643-2.01-0.9-0.34-.147-0.67-0.285-0.97-0.421a7.737,7.737,0,0,0-3.42-.715h-0.02c-2.3-.756-2.99-0.213-4.22.768a3.126,3.126,0,0,1-.1-0.717,3.271,3.271,0,0,1,.63-1.937,0.472,0.472,0,0,0,.07-0.578,2.318,2.318,0,0,0-2.28-.422,4.2,4.2,0,0,0-.97.394c0.9-.607,1.64-1.093,2.21-1.452a12.532,12.532,0,0,1,1.8-.988,0.41,0.41,0,0,0,.04-0.453c-0.43-.078-0.84-0.158-1.24-0.239A4.489,4.489,0,0,1,1509,80l-0.36.035a16.087,16.087,0,0,0-2.23,1.663q-1.875,1.537-4.17,3.43c-1.53,1.263-3.01,2.49-4.46,3.685s-2.45,2-3.01,2.413q-3.495,2.87-7.69,6.121t-8.56,6.477a0.656,0.656,0,0,1-.65.289q-0.24-.111.06-0.77c1.83-3.9,3.49-7.4,4.95-10.487s2.86-5.925,4.16-8.517a1.287,1.287,0,0,1,1.01-.818c0.53-.112,1.16-0.219,1.9-0.324s1.27-.171,1.56-0.2a0.592,0.592,0,0,0,.01-0.812c-2.36.414-4.35,0.733-5.95,0.951s-3.33.421-5.17,0.6c-0.48.047-.91,0.075-1.31,0.085s-0.73.027-1.03,0.057q-1.08.017-2.52,0.026a15.793,15.793,0,0,1-2.18-.1,1.036,1.036,0,0,1-.99-0.892,0.737,0.737,0,0,0-.42.358,5.483,5.483,0,0,0-.42.76c-0.12.283-.23,0.564-0.32,0.843a2.5,2.5,0,0,0-.13.508c0.04,0.356.38,0.5,1.04,0.435a43.5,43.5,0,0,0,4.53-.717,46.232,46.232,0,0,1,4.89-.755c0.3-.03.46,0.044,0.47,0.223a0.154,0.154,0,0,1-.03.137,0.158,0.158,0,0,0-.03.138q-1.275,3.458-2.79,7.3t-3.24,7.794q-1.725,3.954-3.51,7.82t-3.51,7.369q-1.875,3.789-3.52,6.7c-1.11,1.941-2.05,3.489-2.84,4.648q0.03,0.269.57,0.215a7.447,7.447,0,0,1,1.58-1.328,5.093,5.093,0,0,1,2.35-.863c0.24-.023.52-0.037,0.85-0.039a8.843,8.843,0,0,1,.96.041,10.436,10.436,0,0,1,.21-1.057,4.6,4.6,0,0,1,.46-1.261c1.17-2.7,2.35-5.412,3.52-8.137s2.48-5.6,3.92-8.627a2.433,2.433,0,0,1,.52-0.728,0.606,0.606,0,0,1,.44.363q3.75,4.131,8.06,8.382t8.37,7.993a58.327,58.327,0,0,0,8.32,6.422,39.878,39.878,0,0,0,7.5,3.713A28.181,28.181,0,0,0,1522.61,133.207Zm-16.38-43.35c0,0.135,0,.265.01,0.388h0a0.664,0.664,0,0,0-.18.081,2.818,2.818,0,0,0-2.07.477,2.529,2.529,0,0,1,.44-0.573,1.441,1.441,0,0,1,.53-0.323A3,3,0,0,1,1506.23,89.857Zm-0.9-.413a4.275,4.275,0,0,1,.89-0.54v0.549A4.445,4.445,0,0,0,1505.33,89.445Zm7.28,17.242c0.12,0.459.26,0.916,0.4,1.371l0.21,0.68c0.08,0.224.17,0.445,0.25,0.666,0.35,0.88.74,1.744,1.15,2.59s0.87,1.675,1.34,2.488,0.99,1.6,1.53,2.373a26.39,26.39,0,0,0,2.73,3.273c0.06,0.088.11,0.175,0.17,0.259l0.11,0.179c0.3,0.47.59,0.923,0.87,1.365-0.21-.183-0.42-0.369-0.62-0.557a29.8,29.8,0,0,1-6.59-9.076c-0.42-.843-0.8-1.7-1.15-2.581-0.08-.22-0.17-0.44-0.24-0.663s-0.15-.45-0.22-0.675c-0.14-.453-0.27-0.91-0.4-1.367-0.51-1.834-.93-3.7-1.28-5.584-0.02-.084-0.03-0.169-0.05-0.253,0.05,0.146.11,0.292,0.17,0.439,0.15,0.383.28,0.776,0.42,1.191,0.18,0.527.37,1.072,0.6,1.611a0.63,0.63,0,0,0,.05.119C1512.23,105.255,1512.41,105.974,1512.61,106.686Zm-0.17-1.262c0.12,0.263.24,0.529,0.36,0.8,0.14,0.3.28,0.6,0.41,0.9,0.11,0.238.21,0.477,0.32,0.718,0.26,0.6.53,1.21,0.82,1.821,0.27,0.658.57,1.306,0.88,1.944,0.42,0.847.87,1.675,1.34,2.488,0.33,0.555.67,1.1,1.03,1.633,0.41,0.723.8,1.414,1.18,2.059,0.34,0.561.68,1.112,1,1.632a31.93,31.93,0,0,1-5.01-7.508q-0.63-1.266-1.14-2.581c-0.09-.22-0.17-0.441-0.25-0.663s-0.15-.451-0.22-0.676c-0.14-.453-0.27-0.909-0.4-1.366C1512.65,106.229,1512.55,105.827,1512.44,105.424Zm-1.73-3.949c0.35,1.887.78,3.756,1.28,5.593,0.13,0.459.26,0.916,0.4,1.371,0.08,0.227.14,0.454,0.22,0.68s0.17,0.445.25,0.666c0.35,0.881.73,1.744,1.15,2.591s0.86,1.675,1.34,2.487,0.99,1.6,1.53,2.373a25.687,25.687,0,0,0,3.75,4.25c0.35,0.32.7,0.632,1.07,0.937,0.11,0.177.23,0.352,0.35,0.525,0.21,0.31.42,0.607,0.63,0.9a28.851,28.851,0,0,1-9.14-11.168q-0.615-1.266-1.14-2.582c-0.08-.22-0.17-0.44-0.25-0.662s-0.14-.451-0.21-0.676c-0.14-.453-0.27-0.909-0.4-1.367-0.51-1.833-.93-3.7-1.29-5.584-0.24-1.286-.45-2.582-0.62-3.887,0.12,0.286.24,0.58,0.35,0.886,0.12,0.331.24,0.672,0.36,1.021,0.05,0.14.1,0.281,0.15,0.424C1510.56,100.662,1510.63,101.069,1510.71,101.475Zm-0.61.382c0.35,1.888.77,3.756,1.28,5.594,0.13,0.459.26,0.916,0.4,1.37,0.08,0.227.14,0.454,0.22,0.68s0.16,0.446.25,0.666c0.35,0.881.73,1.744,1.15,2.591s0.86,1.675,1.34,2.488,0.99,1.6,1.53,2.372a26.05,26.05,0,0,0,3.74,4.25,32.648,32.648,0,0,0,2.97,2.4c0.24,0.322.47,0.638,0.7,0.947l0.15,0.209c0.01,0.01.01,0.019,0.02,0.029-0.21-.129-0.41-0.262-0.61-0.4q-0.57-.378-1.11-0.778c-0.72-.533-1.42-1.094-2.09-1.682a26.7,26.7,0,0,1-3.64-3.866,34.2,34.2,0,0,1-2.84-4.455q-0.63-1.165-1.17-2.376c-0.18-.4-0.36-0.81-0.52-1.222s-0.33-.822-0.45-1.249c-0.54-1.7-.98-3.434-1.36-5.191s-0.71-3.53-.96-5.324q-0.225-1.466-.39-2.95c-0.02-.2-0.04-0.391-0.05-0.587,0.06,0.218.13,0.439,0.21,0.67,0.06,0.166.12,0.335,0.19,0.5,0.1,0.265.22,0.536,0.34,0.815C1509.58,98.878,1509.82,100.374,1510.1,101.857Zm-1.47-6.036c0.07,1.053.18,2.1,0.31,3.138q0.39,2.7.96,5.332c0.38,1.76.83,3.5,1.36,5.2,0.13,0.43.3,0.844,0.46,1.258s0.34,0.82.52,1.226q0.54,1.215,1.17,2.383a35.534,35.534,0,0,0,2.85,4.47,26.867,26.867,0,0,0,3.66,3.884q1,0.885,2.1,1.688c0.36,0.269.74,0.528,1.11,0.781,0.31,0.209.63,0.42,0.96,0.61,0.17,0.245.34,0.489,0.5,0.725a1.648,1.648,0,0,1,.11.161c-0.31-.173-0.63-0.349-0.94-0.53-0.4-.223-0.78-0.47-1.16-0.724s-0.74-.513-1.11-0.783c-0.72-.535-1.43-1.1-2.1-1.691a26.181,26.181,0,0,1-3.64-3.89,35.648,35.648,0,0,1-2.85-4.48c-0.41-.782-0.8-1.578-1.16-2.39-0.18-.405-0.36-0.814-0.52-1.228s-0.32-.828-0.45-1.259c-0.53-1.706-.97-3.451-1.35-5.216s-0.7-3.547-.95-5.349c-0.23-1.468-.41-2.947-0.5-4.446-0.02-.336-0.04-0.672-0.05-1.01,0,0.319.01,0.638,0.02,0.956,0.04,1.53.18,3.042,0.37,4.542q0.375,2.708.95,5.358c0.38,1.768.82,3.515,1.36,5.228a11.405,11.405,0,0,0,.45,1.266c0.16,0.416.34,0.826,0.52,1.233q0.54,1.221,1.17,2.4a34.644,34.644,0,0,0,2.85,4.5,26.3,26.3,0,0,0,3.66,3.908c0.68,0.594,1.38,1.16,2.11,1.7,0.37,0.27.74,0.531,1.12,0.785a12.512,12.512,0,0,0,1.16.73q0.585,0.321,1.2.621c0.21,0.3.41,0.594,0.63,0.864-0.45-.219-0.89-0.447-1.33-0.682-0.32-.172-0.64-0.339-0.96-0.518l-0.47-.271-0.45-.291c-0.6-.4-1.18-0.809-1.75-1.239a27.408,27.408,0,0,1-5.9-6.013,33.418,33.418,0,0,1-2.22-3.563,35.187,35.187,0,0,1-1.79-3.8c-0.13-.327-0.26-0.655-0.37-0.989s-0.21-.674-0.31-1.014c-0.2-.678-0.38-1.363-0.56-2.051-0.37-1.369-.71-2.754-1-4.151q0.36,2.12.84,4.206,0.27,1.035.57,2.056c0.1,0.341.2,0.679,0.31,1.017s0.24,0.668.37,1a35.365,35.365,0,0,0,1.8,3.818,33.782,33.782,0,0,0,2.22,3.575,27.6,27.6,0,0,0,5.93,6.039c0.57,0.431,1.15.846,1.76,1.243l0.45,0.294,0.48,0.273c0.31,0.177.63,0.353,0.96,0.52,0.51,0.252,1.03.5,1.55,0.726a0.243,0.243,0,0,1,.05.064q0.09,0.1.18,0.222c0.11,0.146.23,0.307,0.35,0.477-0.1-.031-0.21-0.062-0.31-0.094-0.5-.223-0.99-0.461-1.47-0.71-0.51-.25-1.02-0.508-1.52-0.78-0.12-.071-0.25-0.144-0.38-0.215-0.11-.068-0.24-0.133-0.35-0.2-0.24-.146-0.47-0.3-0.71-0.455-0.06-.044-0.12-0.088-0.19-0.132a30.417,30.417,0,0,1-4.89-4.112,23.771,23.771,0,0,1-2.1-2.511,30.567,30.567,0,0,1-1.8-2.727c-0.56-.938-1.07-1.9-1.54-2.886a29.347,29.347,0,0,1-1.35-2.992,30.221,30.221,0,0,0,1.2,3.07c0.47,0.987.99,1.953,1.55,2.894a30.577,30.577,0,0,0,1.8,2.737,25.16,25.16,0,0,0,2.11,2.522,29.789,29.789,0,0,0,3.92,3.423c0.33,0.243.66,0.479,1,.71,0.06,0.043.12,0.087,0.19,0.128,0.23,0.157.47,0.31,0.71,0.46s0.49,0.282.74,0.418c0.5,0.272,1,.535,1.51.784,0.11,0.05.22,0.1,0.33,0.145q0.75,0.335,1.53.625c0.04,0.016.08,0.031,0.13,0.047q0.165,0.232.33,0.447a0.51,0.51,0,0,0,.07.1c0.04,0.055.08,0.109,0.12,0.161-0.38-.117-0.75-0.249-1.11-0.392-0.11-.043-0.22-0.086-0.33-0.132-0.34-.131-0.69-0.273-1.02-0.422s-0.62-.288-0.93-0.441a20.96,20.96,0,0,1-2.23-1.3c-0.35-.227-0.69-0.461-1.02-0.7-0.11-.071-0.21-0.142-0.31-0.213-0.65-.476-1.28-0.975-1.9-1.493-0.25-.217-0.51-0.438-0.75-0.664-0.18-.159-0.36-0.317-0.53-0.481-0.49-.473-0.97-0.958-1.43-1.466-0.47-.49-0.93-1-1.37-1.52,0.39,0.562.81,1.1,1.24,1.625,0.41,0.456.84,0.894,1.28,1.322,0.06,0.05.11,0.1,0.16,0.151,0.17,0.166.35,0.328,0.53,0.49,0.64,0.581,1.31,1.136,2,1.665,0.22,0.166.44,0.331,0.66,0.493,0.1,0.073.21,0.146,0.31,0.219a28.959,28.959,0,0,0,2.59,1.645c0.22,0.123.45,0.244,0.68,0.358s0.49,0.241.74,0.355c0.4,0.184.81,0.357,1.22,0.515,0.51,0.171,1.03.321,1.56,0.442,0.06,0.076.12,0.149,0.17,0.219,0.02,0.026.04,0.049,0.06,0.074,0.07,0.085.13,0.166,0.2,0.243,0.04,0.053.09,0.1,0.13,0.154l0.06,0.065c0.02,0.029.05,0.056,0.07,0.083l-0.33-.106c-0.13-.041-0.26-0.086-0.4-0.135-0.17-.059-0.34-0.124-0.53-0.194-0.24-.092-0.5-0.192-0.77-0.3-0.25-.1-0.51-0.213-0.77-0.327-0.4-.176-0.8-0.361-1.19-0.545-0.36-.173-0.72-0.346-1.05-0.51q-0.435-.218-0.87-0.42a20.585,20.585,0,0,1-2.06-1.078q-0.585-.387-1.14-0.8c-0.32-.237-0.62-0.479-0.92-0.719-0.27-.214-0.53-0.428-0.78-0.638-0.4-.341-0.79-0.7-1.15-1.057-0.19-.2-0.39-0.394-0.57-0.589-0.27-.288-0.53-0.57-0.76-0.837-0.18-.2-0.37-0.405-0.55-0.6-0.1-.114-0.2-0.225-0.3-0.337-0.34-.368-0.65-0.731-0.94-1.1-0.09-.113-0.18-0.225-0.26-0.34-0.69-.978-1.25-1.838-1.71-2.628a16.323,16.323,0,0,1-.91-1.943c-0.13-.325-0.26-0.633-0.39-0.919s-0.25-.527-0.34-0.721a12.209,12.209,0,0,1-.82-2.092l-0.03-.089c-0.06-.177-0.12-0.355-0.18-0.536-0.28-.794-0.56-1.615-0.79-2.482-0.18-.657-0.33-1.356-0.46-2.033-0.08-.364-0.15-0.73-0.23-1.094l-0.11-.5c-0.2-.868-0.4-1.766-0.55-2.637-0.08-.412-0.16-0.819-0.24-1.213-0.13-.677-0.26-1.316-0.34-1.949a18.768,18.768,0,0,1-.13-2.324q-0.015-.449-0.03-0.862V95.716c-0.01-.163-0.01-0.325-0.02-0.485-0.02-.439-0.03-0.86-0.02-1.243a1.839,1.839,0,0,1,.01-0.236,3.665,3.665,0,0,1,.19-1.251,10.648,10.648,0,0,1,.52-1.109c0.01-.029.03-0.06,0.04-0.087,0.03-.051.06-0.1,0.09-0.142,0.06-.093.12-0.177,0.17-0.246,0.05-.052.09-0.1,0.13-0.136a0.8,0.8,0,0,1,.13-0.106,0.45,0.45,0,0,1,.06-0.032c0.02-.008.04-0.02,0.06-0.026a0.58,0.58,0,0,1,.38.026,1.842,1.842,0,0,1,.35.177c0.05,0.035.11,0.075,0.17,0.119s0.15,0.106.23,0.169c0.03,0.026.06,0.05,0.09,0.075a0.252,0.252,0,0,0,.01.086c0.01,0.126.03,0.251,0.05,0.376a9.087,9.087,0,0,0,.34,1.213c0.03,0.112.07,0.217,0.1,0.315,0.08,0.273.16,0.586,0.25,0.918s0.19,0.683.3,1.058C1508.6,95.373,1508.61,95.6,1508.63,95.821Zm7.28,30.783c-0.31-.214-0.6-0.417-0.91-0.605-0.83-.517-1.69-1.052-2.38-1.532a14.073,14.073,0,0,1-1.74-1.317c-0.13-.108-0.27-0.238-0.46-0.4a29.987,29.987,0,0,1-2.45-2.493,22.886,22.886,0,0,1-1.88-2.408,21.577,21.577,0,0,1-1.55-2.641,20.945,20.945,0,0,1-1.13-2.866,16.479,16.479,0,0,1-.38-1.685c-0.07-.362-0.13-0.7-0.21-1.034-0.1-.386-0.21-0.75-0.31-1.1a12.65,12.65,0,0,1-.39-1.576,22.311,22.311,0,0,1-.27-2.8c-0.03-.869.01-1.775,0.07-2.868a13.569,13.569,0,0,1,.2-1.44c0.08-.467.17-0.951,0.21-1.462l0.04-.435a12.905,12.905,0,0,1,.33-2.214,8.962,8.962,0,0,1,1.2-2.516c0.21-.324.37-0.58,0.5-0.786a1.881,1.881,0,0,1,.67-0.8c-0.11.23-.23,0.49-0.35,0.789a7.433,7.433,0,0,0-.21,2.714,18.3,18.3,0,0,0-.39,2.4,37.409,37.409,0,0,0-.17,6.763,34.384,34.384,0,0,0,1.33,6.428c0.15,0.524.33,1.036,0.49,1.553,0.2,0.5.38,1.017,0.61,1.505a20.494,20.494,0,0,0,1.5,2.856c0.28,0.462.58,0.9,0.89,1.344s0.64,0.866.99,1.277a23.786,23.786,0,0,0,2.23,2.35c0.41,0.366.82,0.719,1.26,1.055s0.88,0.646,1.33.963c0.42,0.289.85,0.57,1.28,0.846,0.19,0.174.38,0.347,0.58,0.515,0.47,0.4.97,0.8,1.5,1.2a49.814,49.814,0,0,1-4.57-2.9,21.062,21.062,0,0,1-2.2-1.845,22.591,22.591,0,0,1-1.93-2.093c-0.3-.36-0.58-0.747-0.86-1.124s-0.55-.771-0.79-1.177a23.125,23.125,0,0,1-1.36-2.482l-0.29-.65-0.14-.325-0.13-.332-0.26-.665c-0.07-.224-0.15-0.452-0.22-0.678-0.3-.905-0.54-1.833-0.79-2.76a27.273,27.273,0,0,1-.89-5.728,44.209,44.209,0,0,1,.2-5.961,44.807,44.807,0,0,0-.36,5.99,26.816,26.816,0,0,0,.9,5.754c0.24,0.93.49,1.857,0.79,2.767,0.07,0.227.14,0.457,0.22,0.682l0.26,0.669,0.13,0.334,0.14,0.327,0.29,0.653a21.828,21.828,0,0,0,1.37,2.495c0.24,0.407.52,0.79,0.79,1.183,0.29,0.378.56,0.766,0.87,1.129a21.5,21.5,0,0,0,1.94,2.1,20.281,20.281,0,0,0,2.21,1.856,49.921,49.921,0,0,0,4.95,3.122q0.4,0.227.81,0.443c0.1,0.064.19,0.128,0.29,0.191a20.361,20.361,0,0,0,2.1,1.1c0.28,0.135.57,0.274,0.86,0.418,0.54,0.264,1.13.55,1.74,0.827a30.27,30.27,0,0,1-3.05-1.173,40.964,40.964,0,0,1-3.68-1.871c-1.18-.678-2.34-1.392-3.46-2.157a22.968,22.968,0,0,1-7.84-8.842,22.592,22.592,0,0,1-1.55-3.66,22.353,22.353,0,0,0,1.4,3.74,23.547,23.547,0,0,0,2.08,3.383,22.453,22.453,0,0,0,5.8,5.5c1.12,0.767,2.28,1.483,3.47,2.162s2.42,1.315,3.69,1.878a28.384,28.384,0,0,0,3.97,1.446c0.07,0.017.13,0.03,0.2,0.045,0.09,0.038.18,0.076,0.27,0.112,0.75,0.305,1.39.538,1.92,0.706,0.06,0.02.13,0.04,0.19,0.059a12.107,12.107,0,0,1-1.76-.17c-0.19-.032-0.38-0.073-0.56-0.117a13.632,13.632,0,0,1-1.89-.627c-0.18-.072-0.33-0.132-0.45-0.173l-0.18-.061c-0.85-.291-1.73-0.592-2.55-0.962-0.32-.141-0.64-0.276-0.95-0.406-0.6-.253-1.17-0.492-1.7-0.779A14.757,14.757,0,0,1,1515.91,126.6Zm-10.01-18.157a30.829,30.829,0,0,0,1.53,4.635,23.339,23.339,0,0,0,2.39,4.206c0.36,0.494.73,0.975,1.12,1.441,0.28,0.421.58,0.863,0.91,1.332a17.25,17.25,0,0,0,1.2,1.452c-0.13-.118-0.27-0.236-0.4-0.357a23.884,23.884,0,0,1-2.23-2.338c-0.34-.41-0.66-0.842-0.98-1.27s-0.61-.879-0.89-1.338a21.516,21.516,0,0,1-1.49-2.842c-0.23-.485-0.4-1-0.6-1.5-0.17-.515-0.35-1.021-0.49-1.546a33.535,33.535,0,0,1-1.33-6.4,30.53,30.53,0,0,1,.03-5.057c0.01,0.073.01,0.146,0.02,0.219,0.08,0.645.21,1.29,0.35,1.973,0.08,0.392.16,0.8,0.24,1.2,0.15,0.879.35,1.78,0.55,2.651l0.11,0.5c0.08,0.362.15,0.726,0.23,1.089,0.14,0.681.28,1.386,0.46,2.052,0.24,0.877.52,1.7,0.8,2.5,0.06,0.18.12,0.358,0.18,0.532l0.03,0.088a12.616,12.616,0,0,0,.84,2.128c0.09,0.193.2,0.427,0.33,0.719s0.26,0.584.39,0.907a16.159,16.159,0,0,0,.93,1.98c0.01,0.023.03,0.047,0.04,0.07l-0.21-.286a23.151,23.151,0,0,1-2.38-4.185,29.255,29.255,0,0,1-1.52-4.617,28.715,28.715,0,0,1-.97-4.823A28.331,28.331,0,0,0,1505.9,108.447Zm-1.42-4.491a34.384,34.384,0,0,0,1.33,6.428c0.15,0.525.33,1.036,0.49,1.554,0.2,0.5.38,1.016,0.61,1.5a20.617,20.617,0,0,0,1.5,2.857c0.28,0.461.58,0.9,0.89,1.344s0.64,0.865.99,1.276a23.908,23.908,0,0,0,2.23,2.351c0.41,0.365.82,0.718,1.26,1.054l0.03,0.029a1.307,1.307,0,0,1,.11.118c0.39,0.436.82,0.91,1.3,1.387-0.18-.118-0.36-0.236-0.53-0.356-0.45-.317-0.9-0.622-1.33-0.958s-0.84-.686-1.24-1.049a23.782,23.782,0,0,1-2.23-2.339c-0.34-.409-0.66-0.84-0.98-1.269s-0.61-.879-0.89-1.338a21.516,21.516,0,0,1-1.49-2.842c-0.23-.485-0.41-1-0.6-1.5-0.17-.515-0.35-1.022-0.49-1.546a33.529,33.529,0,0,1-1.33-6.405,37.167,37.167,0,0,1,.17-6.738,18.722,18.722,0,0,1,.25-1.955,1.789,1.789,0,0,0,.01.23c0.01,0.295.01,0.6,0.02,0.926,0.01,0.364.01,0.752,0.03,1.153A34.4,34.4,0,0,0,1504.48,103.956Zm-0.32-12.824a2.632,2.632,0,0,1,1.49-.461,4.277,4.277,0,0,0-.29.424,2.075,2.075,0,0,0-1.32,1.179c-0.13.2-.28,0.455-0.49,0.773a9.164,9.164,0,0,0-1.26,2.638,13.022,13.022,0,0,0-.34,2.286l-0.04.434c-0.05.5-.13,0.973-0.21,1.433a11.734,11.734,0,0,0-.2,1.482c-0.07,1.1-.11,2.017-0.08,2.9a21.248,21.248,0,0,0,.28,2.841,11.316,11.316,0,0,0,.4,1.62c0.1,0.348.21,0.708,0.3,1.087,0.08,0.321.14,0.659,0.21,1.018a15.174,15.174,0,0,0,.39,1.716,21.093,21.093,0,0,0,1.14,2.909,22.529,22.529,0,0,0,1.57,2.68,23.712,23.712,0,0,0,1.91,2.441c0.24,0.278.49,0.553,0.75,0.829,0.53,0.559,1.1,1.118,1.73,1.694,0.15,0.13.27,0.237,0.38,0.329,0.03,0.025.05,0.049,0.08,0.073a14.5,14.5,0,0,0,1.77,1.339c0.69,0.485,1.56,1.023,2.4,1.543,0.29,0.183.58,0.383,0.89,0.595,0.4,0.281.82,0.568,1.27,0.83-0.3-.125-0.61-0.256-0.9-0.4-0.27-.126-0.54-0.252-0.8-0.393s-0.51-.292-0.76-0.44q-0.765-.449-1.5-0.931a28.235,28.235,0,0,1-5.27-4.468,24,24,0,0,1-3.87-5.609,21.223,21.223,0,0,1-1.28-3.181,23.606,23.606,0,0,1-.89-3.349,25.909,25.909,0,0,0,.73,3.411,22.546,22.546,0,0,0,1.29,3.2,24.19,24.19,0,0,0,3.89,5.636,28.41,28.41,0,0,0,5.3,4.487c0.49,0.324.99,0.635,1.49,0.934a15.664,15.664,0,0,0,1.58.841c0.53,0.223,1.07.418,1.62,0.6,0.44,0.212.89,0.4,1.34,0.591,0.3,0.129.62,0.263,0.93,0.4,0.18,0.08.36,0.157,0.55,0.232a35.765,35.765,0,0,1-4.45-1.481,13.168,13.168,0,0,1-1.33-.646c-0.43-.244-0.86-0.494-1.28-0.751-0.83-.515-1.64-1.067-2.41-1.653a25.572,25.572,0,0,1-7.41-8.649,22.487,22.487,0,0,1-1.95-5.393c-0.12-.469-0.19-0.952-0.28-1.429l-0.21-1.451c-0.06-.487-0.1-0.977-0.15-1.465l-0.1-1.479a31.28,31.28,0,0,1,.35-6.01,22.46,22.46,0,0,1,1.74-6,23,23,0,0,0-1.9,6.007,31.582,31.582,0,0,0-.35,6.038l0.1,1.483c0.05,0.49.09,0.982,0.15,1.471l0.21,1.456c0.09,0.48.16,0.965,0.28,1.436a22.713,22.713,0,0,0,1.97,5.421,25.5,25.5,0,0,0,7.44,8.69,29.257,29.257,0,0,0,2.42,1.659c0.42,0.259.85,0.509,1.28,0.753a11.527,11.527,0,0,0,1.35.654,36.95,36.95,0,0,0,4.78,1.443c0.59,0.232,1.19.441,1.78,0.643l0.18,0.061c0.12,0.04.27,0.1,0.44,0.167a11.3,11.3,0,0,0,4.49.942,2.93,2.93,0,0,1-1.11.039l-0.27-.042a24.386,24.386,0,0,1-2.96-.6c-0.52-.145-1.05-0.338-1.62-0.542-0.46-.169-0.95-0.344-1.44-0.5-0.37-.115-0.75-0.226-1.12-0.335-0.7-.209-1.37-0.406-1.98-0.62a21.1,21.1,0,0,1-2.94-1.193c-0.15-.088-0.34-0.186-0.55-0.3a18.444,18.444,0,0,1-2.01-1.176,11.93,11.93,0,0,1-1.24-1.061c-0.29-.276-0.6-0.561-0.93-0.842-0.22-.184-0.45-0.363-0.69-0.553a13.708,13.708,0,0,1-1.51-1.309,26.739,26.739,0,0,1-1.83-2.193,24.564,24.564,0,0,1-1.55-2.383c-0.09-.157-0.19-0.314-0.28-0.473a16.274,16.274,0,0,1-1.1-2.015,22.764,22.764,0,0,1-.91-2.719,22.35,22.35,0,0,1-.6-2.832c-0.04-.277-0.09-0.55-0.14-0.819a21.593,21.593,0,0,1-.3-2.143c-0.09-1.12-.13-2.113-0.12-3.037a17.818,17.818,0,0,1,.21-2.243c0.04-.287.07-0.568,0.11-0.841a25.593,25.593,0,0,1,.51-3.078,22.592,22.592,0,0,1,.91-3.051,12.421,12.421,0,0,1,1.26-2.4c0.06-.085.12-0.16,0.17-0.223s0.11-.137.15-0.181A2.984,2.984,0,0,1,1504.16,91.133Zm26.73,35.724q-0.15.447-.33,0.892a16.468,16.468,0,0,1-.96,2.027c-0.07.1-.15,0.192-0.23,0.285a5.611,5.611,0,0,0,.35-1.2c0.11-.24.22-0.481,0.32-0.722a31.93,31.93,0,0,0,1.17-3.322q0.48-1.675.84-3.36c0.12-.561.23-1.122,0.34-1.684l0.15-.842,0.1-.843a22.826,22.826,0,0,0-.15-6.613,28.723,28.723,0,0,0-1.78-6.168,34.636,34.636,0,0,0-2.96-5.624l-0.45-.657c-0.14-.221-0.29-0.439-0.45-0.65l-0.47-.641c-0.16-.211-0.34-0.411-0.51-0.617-0.32-.42-0.71-0.793-1.07-1.182-0.18-.2-0.39-0.368-0.58-0.553s-0.39-.37-0.6-0.54a33.04,33.04,0,0,0-10.68-5.971c0.77,0.282,1.53.6,2.27,0.939,1,0.463,1.99.959,2.94,1.5,0.48,0.258.94,0.543,1.42,0.815l0.69,0.435,0.34,0.218,0.33,0.229,0.67,0.459,0.65,0.484c0.44,0.315.84,0.669,1.25,1.007,0.21,0.169.4,0.359,0.59,0.537s0.4,0.355.58,0.55c0.36,0.386.75,0.757,1.07,1.174,0.17,0.2.34,0.4,0.5,0.614l0.47,0.638c0.16,0.211.31,0.428,0.46,0.648l0.44,0.655a34.4,34.4,0,0,1,2.95,5.6,29.12,29.12,0,0,1,1.78,6.143,23.28,23.28,0,0,1,.15,6.574l-0.11.838-0.15.839c-0.1.56-.22,1.12-0.34,1.679-0.24,1.119-.52,2.237-0.83,3.351a34.152,34.152,0,0,1-1.09,3.321l-0.21.5c0.05-.377.1-0.794,0.14-1.27,0.27-.717.5-1.439,0.72-2.162,0.32-1.117.59-2.238,0.84-3.36,0.12-.561.23-1.122,0.34-1.683,0.05-.281.1-0.561,0.14-0.843l0.11-.842a22.826,22.826,0,0,0-.15-6.613,28.728,28.728,0,0,0-1.79-6.168,34.52,34.52,0,0,0-2.95-5.624l-0.45-.658c-0.14-.221-0.29-0.439-0.45-0.65l-0.48-.64c-0.16-.211-0.33-0.412-0.5-0.618-0.33-.42-0.71-0.793-1.08-1.182a7.327,7.327,0,0,0-.58-0.553c-0.2-.179-0.38-0.37-0.59-0.54a33.041,33.041,0,0,0-10.68-5.971c0.77,0.281,1.52.6,2.26,0.939,1.01,0.463,1.99.959,2.94,1.5,0.49,0.258.95,0.543,1.42,0.815l0.69,0.435,0.35,0.218,0.33,0.229,0.67,0.459,0.65,0.483c0.43,0.315.83,0.669,1.25,1.008,0.21,0.169.39,0.359,0.59,0.537s0.4,0.354.58,0.55c0.36,0.386.74,0.756,1.07,1.173,0.16,0.205.34,0.4,0.5,0.614l0.47,0.638c0.16,0.211.31,0.428,0.45,0.648l0.45,0.655a33.647,33.647,0,0,1,2.94,5.605,27.974,27.974,0,0,1,1.78,6.142,22.569,22.569,0,0,1,.15,6.575l-0.11.837c-0.04.28-.09,0.56-0.14,0.84-0.11.56-.22,1.119-0.34,1.679-0.24,1.119-.52,2.236-0.83,3.35-0.16.579-.34,1.158-0.52,1.734,0.01-.166.03-0.336,0.05-0.515,0.03-.244.07-0.489,0.11-0.734s0.07-.513.11-0.771c0.21-.775.39-1.553,0.57-2.33,0.12-.541.23-1.083,0.34-1.624s0.21-1.084.27-1.627a22.536,22.536,0,0,0,0-6.406,28.341,28.341,0,0,0-1.55-6.018,32.665,32.665,0,0,0-2.7-5.513c-0.27-.433-0.53-0.873-0.83-1.292l-0.43-.635-0.45-.619c-0.29-.419-0.63-0.809-0.95-1.207-0.35-.377-0.69-0.765-1.07-1.117-0.36-.368-0.76-0.7-1.14-1.047-0.41-.326-0.8-0.662-1.23-0.968a28.641,28.641,0,0,0-2.61-1.756,38.806,38.806,0,0,0-5.76-2.778,38.268,38.268,0,0,1,5.66,2.906c0.45,0.271.89,0.556,1.33,0.843s0.86,0.589,1.27.907,0.82,0.639,1.22.964c0.38,0.343.78,0.675,1.14,1.041,0.37,0.351.71,0.735,1.06,1.11,0.32,0.4.65,0.783,0.94,1.2l0.46,0.617,0.42,0.633c0.3,0.417.56,0.856,0.83,1.287a33.285,33.285,0,0,1,2.69,5.494,27.561,27.561,0,0,1,1.54,5.991,22.285,22.285,0,0,1,0,6.37c-0.06.538-.17,1.079-0.27,1.619s-0.22,1.081-.34,1.621c-0.09.415-.19,0.831-0.29,1.246,0.01-.19.02-0.379,0.03-0.566q0-.5-0.03-0.988c0.15-.7.29-1.406,0.41-2.109,0.07-.524.13-1.047,0.2-1.571,0.04-.522.06-1.042,0.09-1.563,0-.516,0-1.033-0.02-1.548-0.04-.509-0.07-1.021-0.12-1.528a27.41,27.41,0,0,0-1.35-5.862,33.652,33.652,0,0,0-2.46-5.4l-0.37-.643-0.39-.629c-0.13-.209-0.25-0.421-0.39-0.626l-0.42-.613a23.429,23.429,0,0,0-1.8-2.35,24.3,24.3,0,0,0-4.58-3.875,37.53,37.53,0,0,0-5.42-2.9,37.384,37.384,0,0,1,5.31,3.026,24.261,24.261,0,0,1,4.56,3.855,22.848,22.848,0,0,1,1.8,2.338l0.41,0.611c0.14,0.2.26,0.416,0.39,0.624l0.39,0.626,0.37,0.642a32.587,32.587,0,0,1,2.44,5.382,27.21,27.21,0,0,1,1.35,5.835c0.05,0.505.08,1.014,0.12,1.52,0.02,0.512.02,1.026,0.02,1.539-0.03.518-.05,1.035-0.09,1.553-0.07.52-.13,1.04-0.2,1.561-0.09.521-.19,1.042-0.29,1.563-0.02-.268-0.05-0.535-0.08-0.8-0.02-.164-0.03-0.329-0.05-0.493a0.05,0.05,0,0,1,.01-0.036l0.16-1.271c0.03-.212.04-0.422,0.05-0.633l0.04-.631a25.441,25.441,0,0,0-.32-4.955,28.585,28.585,0,0,0-1.25-4.692,30.155,30.155,0,0,0-1.94-4.392,34.252,34.252,0,0,0-2.55-4.056,18.452,18.452,0,0,0-3.33-3.467,18.765,18.765,0,0,1,3.2,3.563,33.912,33.912,0,0,1,2.53,4.042,30.065,30.065,0,0,1,1.94,4.376,29.385,29.385,0,0,1,1.24,4.672,25.165,25.165,0,0,1,.32,4.926l-0.04.628c-0.01.21-.02,0.419-0.05,0.63l-0.08.607c-0.06-.608-0.14-1.269-0.24-1.938,0.01-.82-0.02-1.634-0.08-2.439a27.457,27.457,0,0,0-2.14-8.4,28.646,28.646,0,0,0-4.35-7.347,34.371,34.371,0,0,1,2.3,3.6,31.85,31.85,0,0,1,1.9,3.823,27.534,27.534,0,0,1,2.13,8.363c0.04,0.513.07,1.029,0.08,1.548-0.16-.789-0.38-1.775-0.67-2.746-0.02-.058-0.03-0.116-0.05-0.174l-0.03-.18a25.472,25.472,0,0,0-.71-3.141,28.183,28.183,0,0,0-1.11-2.977,31.574,31.574,0,0,1,.96,3.036c0.16,0.541.29,1.088,0.42,1.64-0.12-.365-0.24-0.728-0.38-1.08-0.31-.8-0.69-1.572-1.06-2.321l-0.19-.389c-0.45-.916-0.95-1.8-1.42-2.619-0.36-.619-0.76-1.208-1.15-1.779l-0.48-.712c-0.22-.332-0.43-0.678-0.63-1.012-0.31-.5-0.62-1.023-0.97-1.5-0.54-.726-1.18-1.574-1.83-2.356-0.59-.715-1.19-1.375-1.77-2.013l-0.2-.226c-0.64-.7-1.31-1.408-2.06-2.168-0.58-.579-1.14-1.095-1.64-1.55-0.19-.175-0.38-0.343-0.55-0.505-0.69-.646-1.29-1.145-1.73-1.509-0.23-.194-0.41-0.347-0.54-0.462a8.767,8.767,0,0,0-.97-0.787,4.33,4.33,0,0,0-.55-0.327c-0.06-.029-0.12-0.054-0.17-0.076,0.02-.048.04-0.091,0.06-0.136,0.08-.2.16-0.371,0.24-0.523,0.03-.063.06-0.121,0.09-0.176a1.254,1.254,0,0,1,.49-0.578,1.589,1.589,0,0,1,.94-0.045,9.84,9.84,0,0,1,1.13.271,19.207,19.207,0,0,1,2.01.8c0.21,0.093.44,0.191,0.67,0.292,0.85,0.364,1.72.779,2.59,1.232l0.34,0.176c0.71,0.367,1.45.747,2.16,1.193,0.75,0.467,1.46,1,2.21,1.564l0.08,0.062c0.19,0.146.39,0.29,0.59,0.435a15.949,15.949,0,0,1,1.61,1.285,14.905,14.905,0,0,1,1.5,1.775c0.08,0.111.17,0.223,0.25,0.334,0.53,0.691,1.09,1.442,1.61,2.252,0.47,0.744.89,1.533,1.34,2.369l0.02,0.04c0.16,0.312.35,0.621,0.53,0.921a11.727,11.727,0,0,1,.81,1.5,20.669,20.669,0,0,1,.72,2.047c0.07,0.2.13,0.4,0.19,0.594,0.32,0.976.56,1.86,0.75,2.7a26.549,26.549,0,0,1,.45,2.794,21.75,21.75,0,0,1,.14,2.869,22.7,22.7,0,0,1-.27,2.915,10.044,10.044,0,0,1-.39,1.484c-0.09.289-.2,0.612-0.35,1.2,0.09-.418.17-0.835,0.25-1.253l0.15-.843,0.11-.842a23.184,23.184,0,0,0-.15-6.613,29.31,29.31,0,0,0-1.79-6.168,33.811,33.811,0,0,0-2.96-5.624l-0.44-.658c-0.15-.22-0.3-0.438-0.46-0.65l-0.47-.641c-0.16-.211-0.34-0.411-0.51-0.618-0.32-.42-0.71-0.793-1.07-1.182-0.18-.2-0.39-0.368-0.58-0.553s-0.39-.37-0.6-0.54a33.046,33.046,0,0,0-10.68-5.971c0.78,0.281,1.53.6,2.27,0.939,1,0.463,1.99.959,2.94,1.5,0.48,0.258.95,0.542,1.42,0.815l0.69,0.435,0.34,0.217,0.34,0.229,0.66,0.459,0.65,0.483c0.44,0.315.84,0.669,1.25,1.008,0.21,0.169.4,0.358,0.6,0.537s0.4,0.354.57,0.55a14.583,14.583,0,0,1,1.07,1.174c0.17,0.2.34,0.4,0.5,0.613l0.47,0.638c0.16,0.211.31,0.428,0.46,0.648l0.44,0.656a34.424,34.424,0,0,1,2.95,5.6,29.111,29.111,0,0,1,1.78,6.142,22.923,22.923,0,0,1,.15,6.575l-0.11.837-0.15.84q-0.15.84-.33,1.679c-0.25,1.119-.52,2.237-0.84,3.35-0.18.643-.37,1.284-0.58,1.923C1531.01,126.518,1530.95,126.688,1530.89,126.856Zm-7.71-22.849,0.94,1.508c0.63,1,1.21,2.025,1.78,3.063s1.11,2.088,1.62,3.154c0.26,0.533.51,1.07,0.74,1.614,0.06,0.117.11,0.235,0.17,0.353,0.06,0.217.12,0.434,0.19,0.65,0.31,1.039.53,2.1,0.7,2.911l0.03,0.178c-0.25-.7-0.51-1.4-0.8-2.084-0.44-1.07-.96-2.1-1.45-3.15-1.03-2.067-2.13-4.095-3.28-6.093s-2.37-3.953-3.63-5.886q-0.945-1.45-1.92-2.878-0.8-1.115-1.62-2.208c0.5,0.526.98,1.032,1.43,1.532l0.21,0.226c0.58,0.636,1.17,1.293,1.76,2,0.64,0.776,1.28,1.62,1.81,2.343,0.35,0.46.64,0.951,0.96,1.471,0.2,0.336.41,0.684,0.64,1.022,0.15,0.239.32,0.477,0.48,0.716,0.38,0.565.78,1.15,1.13,1.758,0.47,0.815.97,1.693,1.41,2.6l0.19,0.391c0.37,0.743.75,1.512,1.06,2.3,0.14,0.351.26,0.716,0.37,1.084-0.14-.311-0.28-0.62-0.43-0.928-0.52-1.069-1.06-2.119-1.63-3.16s-1.15-2.069-1.78-3.067l-0.93-1.51c-0.34-.488-0.67-0.979-1.01-1.463C1522.6,102.976,1522.9,103.491,1523.18,104.007Zm-5.05-6.566c0.66,0.95,1.29,1.909,1.92,2.875,1.26,1.932,2.46,3.892,3.63,5.881,1.15,1.995,2.25,4.021,3.28,6.086,0.49,1.045,1,2.076,1.44,3.145,0.36,0.749.68,1.519,1,2.291,0.14,0.8.23,1.592,0.3,2.3l-0.41-1.2c-0.11-.327-0.25-0.637-0.37-0.956l-0.38-.951c-0.25-.633-0.55-1.242-0.84-1.86s-0.57-1.234-.88-1.835c-1.21-2.439-2.54-4.8-3.9-7.148s-2.8-4.645-4.27-6.925q-0.555-.857-1.11-1.7c-0.38-.566-0.75-1.132-1.13-1.693-0.65-.921-1.3-1.835-1.97-2.742,0.49,0.445,1.04.948,1.59,1.508,0.16,0.163.32,0.323,0.47,0.481C1517.06,95.8,1517.6,96.619,1518.13,97.441Zm-1.86-1.6c0.38,0.563.76,1.124,1.13,1.692s0.74,1.132,1.11,1.7c1.47,2.278,2.9,4.578,4.26,6.92s2.7,4.706,3.9,7.141c0.31,0.6.6,1.218,0.88,1.833s0.59,1.226.84,1.857l0.42,0.93c0.13,0.313.28,0.616,0.4,0.937l0.5,1.286c0,0.039.01,0.08,0.01,0.118,0.02,0.252.05,0.5,0.08,0.756,0.05,0.55.11,1.115,0.14,1.684a32.427,32.427,0,0,0-1.32-4.017c-0.6-1.443-1.27-2.85-1.95-4.247q-2.085-4.185-4.44-8.206t-4.9-7.932q-1.26-1.958-2.57-3.888c-0.73-1.043-1.47-2.078-2.23-3.106,0.38,0.317.83,0.7,1.32,1.167,0.16,0.147.33,0.3,0.5,0.456Q1515.325,94.371,1516.27,95.839Zm16.22,25.828c0.06-.259.11-0.516,0.17-0.763C1532.6,121.15,1532.55,121.409,1532.49,121.667Zm-18.4-35.307h0.09a7.386,7.386,0,0,1,3.16.681c0.3,0.136.62,0.276,0.97,0.424,0.6,0.258,1.28.55,1.99,0.895a13.5,13.5,0,0,1,1.73,1.065c0.3,0.2.62,0.417,0.95,0.626,0.19,0.124.39,0.248,0.6,0.375a12.185,12.185,0,0,1,3.59,2.983c0.18,0.2.37,0.409,0.56,0.617s0.4,0.418.61,0.63a16.426,16.426,0,0,1,1.47,1.655,29.555,29.555,0,0,1,1.65,2.592c0.52,0.873.99,1.827,1.43,2.73,0.5,1.02.89,1.871,1.21,2.7,0.33,0.889.55,1.749,0.77,2.58l0.07,0.279a22.4,22.4,0,0,1,.56,2.944,19.7,19.7,0,0,1,.18,3.035,15.607,15.607,0,0,1-.52,2.994l-0.03.1a27.168,27.168,0,0,1-.92,3.091c-0.05.122-.14,0.326-0.27,0.583l0.64-2.508,0.18-.7c0.04-.232.06-0.466,0.1-0.7l0.1-.7c0.03-.234.04-0.464,0.06-0.7a23.052,23.052,0,0,0-.31-5.461,28.75,28.75,0,0,0-1.43-5.143,33.147,33.147,0,0,0-2.27-4.77l-0.33-.572-0.35-.559-0.35-.559-0.37-.545-0.37-.545-0.39-.531c-0.13-.176-0.26-0.358-0.4-0.528l-0.42-.51a22.1,22.1,0,0,0-3.94-3.58,32.389,32.389,0,0,0-4.68-2.786l-0.63-.293-0.63-.275c-0.43-.188-0.86-0.349-1.3-0.519a16.6,16.6,0,0,0-2.71-.8,16.465,16.465,0,0,1,2.67.865c0.43,0.182.86,0.353,1.27,0.552l0.63,0.291,0.61,0.309a32.139,32.139,0,0,1,4.65,2.775,21.778,21.778,0,0,1,3.93,3.56l0.42,0.506c0.14,0.169.26,0.351,0.39,0.526l0.39,0.53,0.37,0.542,0.37,0.544,0.35,0.557,0.35,0.557,0.33,0.57a34.072,34.072,0,0,1,2.26,4.753,27.759,27.759,0,0,1,1.42,5.121,22.8,22.8,0,0,1,.31,5.43c-0.02.231-.01,0.46-0.04,0.692l-0.08.693c-0.03.232-.05,0.463-0.08,0.7l-0.16.7-0.57,2.54a1.069,1.069,0,0,0-.08.163c-0.22.436-.49,1-0.77,1.635q0.315-1.122.6-2.246l0.37-1.446,0.18-.723a2.353,2.353,0,0,0,.06-0.365l0.05-.364a21.969,21.969,0,0,0,.02-5.727,29.471,29.471,0,0,0-3.48-10.439,34.5,34.5,0,0,0-2.99-4.581,20.888,20.888,0,0,0-4.02-3.789,33.653,33.653,0,0,0-4.82-2.935,34.242,34.242,0,0,0-5.38-2.126,39.635,39.635,0,0,1,10.09,5.183,20.513,20.513,0,0,1,3.99,3.767,32.4,32.4,0,0,1,2.98,4.564,29.3,29.3,0,0,1,3.47,10.4,21.687,21.687,0,0,1-.02,5.69l-0.04.36a2.2,2.2,0,0,1-.05.359l-0.16.724-0.32,1.447q-0.27,1.173-.57,2.346c-0.06.146-.13,0.294-0.19,0.448-0.05.107-.1,0.219-0.14,0.328,0.03-.166.07-0.331,0.1-0.495,0.09-.425.17-0.827,0.27-1.216a14.58,14.58,0,0,1,.41-1.421,9.844,9.844,0,0,0,.4-1.539,21.97,21.97,0,0,0,.28-2.973,24.293,24.293,0,0,0-.14-2.912,27.429,27.429,0,0,0-.47-2.831,26.735,26.735,0,0,0-.75-2.734c-0.06-.2-0.12-0.394-0.18-0.591a22.014,22.014,0,0,0-.74-2.077,11.659,11.659,0,0,0-.83-1.541c-0.18-.3-0.36-0.6-0.52-0.907l-0.02-.039c-0.45-.841-0.87-1.636-1.36-2.391-0.52-.819-1.09-1.577-1.62-2.273-0.08-.11-0.17-0.221-0.25-0.332a15.151,15.151,0,0,0-1.53-1.813,16.5,16.5,0,0,0-1.65-1.312c-0.19-.143-0.39-0.286-0.58-0.432l-0.08-.061c-0.72-.544-1.47-1.106-2.23-1.581-0.73-.453-1.47-0.836-2.19-1.206l-0.33-.175c-0.88-.457-1.76-0.876-2.62-1.244-0.23-.1-0.46-0.2-0.67-0.291a20.288,20.288,0,0,0-2.05-.815,5.51,5.51,0,0,0-1.95-.316,5.67,5.67,0,0,1,2.59-.757Zm-3.95.666c1.02-.811,1.54-1.227,2.92-0.93a6.4,6.4,0,0,0-2.46,1.107l-0.03.02a1.724,1.724,0,0,0-.38.368c-0.06-.153-0.12-0.309-0.17-0.466Zm0.13,2.472a3.382,3.382,0,0,1,.34.206,9.013,9.013,0,0,1,.98.793c0.13,0.121.32,0.275,0.55,0.472,0.1,0.079.2,0.166,0.31,0.258,0.73,1.084,1.46,2.174,2.17,3.271q1.305,1.93,2.57,3.886,2.535,3.912,4.9,7.928c1.56,2.68,3.05,5.411,4.43,8.2,0.69,1.394,1.35,2.8,1.95,4.24a29.546,29.546,0,0,1,1.47,4.016V123.3c-0.01.426-.05,0.863-0.1,1.3-0.17-.592-0.34-1.184-0.51-1.772l-0.8-2.319-0.93-2.257c-0.33-.745-0.67-1.48-1.01-2.221-1.38-2.94-2.9-5.806-4.5-8.625s-3.28-5.589-5.02-8.321l-1.32-2.043-1.33-2.029c-0.93-1.331-1.86-2.656-2.81-3.968,0.91,1.343,1.79,2.7,2.67,4.06s1.78,2.705,2.65,4.07q2.61,4.1,5.02,8.317c1.6,2.817,3.12,5.68,4.5,8.617,0.33,0.739.68,1.473,1,2.217l0.93,2.254,0.87,2.281c0.2,0.593.39,1.191,0.58,1.788-0.04.345-.1,0.691-0.15,1.031-0.03.246-.07,0.492-0.11,0.746v0.064a25.408,25.408,0,0,0-1.06-4.259c-0.58-1.653-1.26-3.261-1.99-4.844-1.45-3.163-3.08-6.236-4.79-9.26s-3.5-6-5.34-8.942c-0.93-1.471-1.86-2.934-2.81-4.389q-1.455-2.16-2.95-4.292,1.425,2.178,2.81,4.383,1.425,2.181,2.8,4.387c1.85,2.942,3.64,5.915,5.34,8.938s3.34,6.092,4.8,9.251c0.72,1.581,1.4,3.185,1.98,4.833a24.924,24.924,0,0,1,1.2,4.3c-0.03.224-.05,0.439-0.07,0.639-0.04.49-.08,0.909-0.14,1.282-0.02-.309-0.05-0.616-0.1-0.919a22.461,22.461,0,0,0-.62-2.721,51.183,51.183,0,0,0-1.94-5.165c-1.46-3.365-3.13-6.621-4.88-9.833s-3.58-6.369-5.47-9.5q-1.425-2.344-2.88-4.664-1.485-2.3-3.02-4.57,1.455,2.317,2.88,4.659,1.455,2.319,2.87,4.662c1.89,3.125,3.73,6.282,5.48,9.489s3.41,6.464,4.87,9.825a48.918,48.918,0,0,1,1.93,5.151,22.029,22.029,0,0,1,.7,2.684,10.325,10.325,0,0,1,.15,1.118,4.793,4.793,0,0,1-.45,1.464,15.034,15.034,0,0,0-.31-2.424c-0.1-.451-0.2-0.905-0.32-1.351s-0.23-.892-0.38-1.328c-0.57-1.748-1.24-3.448-1.97-5.125-1.45-3.352-3.09-6.6-4.8-9.818s-3.51-6.375-5.36-9.508q-1.38-2.349-2.81-4.676c-0.97-1.537-1.96-3.065-2.95-4.585,0.95,1.55,1.88,3.109,2.81,4.673,0.95,1.55,1.88,3.109,2.81,4.674q2.775,4.7,5.35,9.5c1.71,3.213,3.36,6.462,4.8,9.809,0.73,1.675,1.4,3.373,1.97,5.115a19.645,19.645,0,0,1,1.14,5.07,0.454,0.454,0,0,1-.05.1v0.011a0.013,0.013,0,0,0-.01.014c-0.02.026-.03,0.052-0.05,0.078a1.639,1.639,0,0,1-.11.171,0.691,0.691,0,0,1-.07.106,0.781,0.781,0,0,1-.23-0.134,2.778,2.778,0,0,1-.22-0.19l-0.03-.037a1.175,1.175,0,0,1-.13-0.135c-0.07-.068-0.13-0.14-0.2-0.216-0.01-.018-0.03-0.037-0.04-0.055-0.12-.132-0.23-0.27-0.34-0.411l-0.03-.039-0.03-.035-0.21-.275c0-.019-0.01-0.038-0.01-0.058a0.03,0.03,0,0,0-.01-0.026c0-.025-0.01-0.05-0.01-0.075a0.274,0.274,0,0,1-.02-0.088c-0.03-.13-0.06-0.26-0.1-0.39a0.185,0.185,0,0,0-.02-0.07c0-.019-0.01-0.038-0.01-0.057V128.4l-0.18-.633a0.236,0.236,0,0,1-.02-0.079c-0.04-.117-0.07-0.233-0.11-0.35-0.02-.079-0.05-0.158-0.07-0.237-0.24-.644-0.48-1.282-0.74-1.914a2.318,2.318,0,0,1-.1-0.232c-0.26-.63-0.53-1.255-0.8-1.876-0.35-.778-0.7-1.551-1.07-2.32q-0.975-2.075-2-4.122l-0.94-1.846-0.1-.2c-0.09-.155-0.17-0.309-0.26-0.464-0.29-.512-0.57-1.023-0.87-1.529l0.98,2.074,1.04,2.043q1.02,2.022,1.98,4.071l0.03,0.048c0.5,1.079,1,2.163,1.47,3.26q0.195,0.463.39,0.93c0.17,0.4.33,0.806,0.49,1.212,0.07,0.182.13,0.364,0.2,0.548a0.669,0.669,0,0,1,.05.13c0.03,0.084.07,0.167,0.1,0.251,0.05,0.149.11,0.3,0.17,0.448l0.03,0.088c0.09,0.224.17,0.448,0.24,0.674,0.01,0,.01,0,0.01,0a0.154,0.154,0,0,0,.02.063l0.03,0.082,0.12,0.4,0.03,0.09a0.205,0.205,0,0,1,.02.073,0.034,0.034,0,0,1,.01.028,0.052,0.052,0,0,1,.01.037l-0.03-.043-0.03-.037c-0.02-.024-0.03-0.049-0.05-0.073s-0.05-.07-0.08-0.1c-0.09-.118-0.17-0.23-0.24-0.326l-0.09-.13q-0.06-.08-0.12-0.156c-0.01-.012-0.01-0.024-0.02-0.036l-0.06-.07c-0.12-.168-0.24-0.322-0.34-0.457-0.03-.1-0.05-0.2-0.08-0.306a0.492,0.492,0,0,0-.04-0.113c-0.01-.043-0.02-0.088-0.03-0.13q-0.09-.274-0.18-0.544l-0.06-.158-0.06-.167c-0.07-.184-0.15-0.366-0.23-0.548l-0.09-.21c-0.11-.256-0.23-0.512-0.34-0.767a0.951,0.951,0,0,1-.07-0.144l-0.06-.128c-0.13-.3-0.27-0.588-0.41-0.881-0.05-.1-0.1-0.2-0.14-0.3l-0.48-1c-0.06-.113-0.11-0.225-0.17-0.337-0.1-.212-0.2-0.426-0.31-0.638-0.53-1.085-1.08-2.167-1.63-3.245l-0.14-.276-0.69-1.339c-0.3-.525-0.6-1.051-0.91-1.571,0.12,0.274.25,0.545,0.37,0.817l0.39,0.835,0.83,1.614c0.55,1.079,1.1,2.159,1.63,3.244,0.06,0.1.1,0.2,0.15,0.306l0.18,0.354c0.16,0.342.33,0.684,0.5,1.028,0.05,0.1.09,0.207,0.14,0.31q0.21,0.448.42,0.9c0.05,0.1.09,0.189,0.14,0.284,0.01,0.032.03,0.064,0.04,0.1,0.11,0.23.21,0.461,0.31,0.693a2.228,2.228,0,0,1,.1.226c0.11,0.24.21,0.481,0.31,0.723a0.023,0.023,0,0,1,.01.022c0.03,0.054.05,0.108,0.08,0.161,0.1,0.237.21,0.476,0.31,0.718,0.01,0.041.03,0.082,0.04,0.123,0.04,0.089.07,0.177,0.1,0.266-0.09-.109-0.17-0.223-0.26-0.341-0.04-.054-0.08-0.11-0.12-0.166-0.2-.272-0.4-0.56-0.61-0.861V126.26c-0.06-.086-0.12-0.175-0.18-0.262-0.08-.117-0.16-0.235-0.25-0.354-0.07-.156-0.13-0.312-0.2-0.467l-0.12-.269c-0.06-.117-0.11-0.235-0.16-0.353l-0.27-.536-0.16-.312-0.45-.883-0.07-.148-0.19-.352-0.61-1.2-0.21-.41-0.69-1.339-1.79-3.445-0.89-1.721c-0.33-.56-0.64-1.123-0.97-1.679,0.26,0.59.54,1.174,0.82,1.76l0.9,1.721,1.78,3.444,0.48,0.932,0.22,0.427,0.64,1.248,0.19,0.367,0.24,0.477,0.3,0.586,0.16,0.324,0.42,0.822,0.06,0.115c0.06,0.1.11,0.2,0.17,0.3,0.02,0.043.05,0.084,0.07,0.127,0,0,0,0-.01-0.007l-0.1-.148-0.05-.062c-0.08-.105-0.16-0.212-0.23-0.319-0.31-.412-0.62-0.835-0.93-1.275-0.1-.148-0.21-0.3-0.31-0.452-0.05-.072-0.1-0.142-0.15-0.216-0.14-.2-0.27-0.4-0.4-0.6-0.08-.166-0.15-0.331-0.22-0.5-0.01,0-.01-0.007-0.01-0.011l-0.2-.393-0.58-1.134-0.15-.294-0.26-.509-1.16-2.243-1.58-3.042-0.79-1.52c-0.28-.493-0.57-0.989-0.86-1.478,0.23,0.523.48,1.04,0.72,1.56l0.79,1.519,1.58,3.041,0.87,1.7,0.29,0.554,0.41,0.8,0.37,0.737a0.039,0.039,0,0,1-.02-0.023c-0.12-.175-0.23-0.351-0.34-0.531l-0.11-.178c-0.29-.452-0.61-0.949-0.93-1.468-0.19-.31-0.38-0.628-0.57-0.95a1.5,1.5,0,0,1-.1-0.169c-0.49-.817-0.99-1.706-1.51-2.643-0.18-.324-0.36-0.646-0.55-0.97-0.31-.547-0.64-1.114-0.93-1.69-0.18-.34-0.35-0.676-0.53-1.009-0.28-.53-0.57-1.077-0.83-1.618-0.31-.662-0.61-1.333-0.89-1.982-0.11-.242-0.22-0.482-0.32-0.72-0.04-.083-0.08-0.165-0.11-0.247-0.1-.22-0.2-0.44-0.3-0.657-0.05-.1-0.09-0.205-0.14-0.307-0.23-.509-0.45-1-0.65-1.5-0.22-.529-0.41-1.069-0.59-1.591-0.02-.071-0.05-0.138-0.07-0.207-0.12-.342-0.23-0.673-0.36-1,0-.011-0.01-0.021-0.01-0.032-0.23-.592-0.43-1.176-0.63-1.74q-0.09-.257-0.18-0.506c-0.05-.168-0.11-0.334-0.17-0.5a0.024,0.024,0,0,1-.01-0.022c-0.08-.22-0.16-0.431-0.25-0.639-0.11-.259-0.21-0.511-0.32-0.757-0.13-.316-0.26-0.62-0.38-0.917-0.06-.147-0.11-0.294-0.16-0.438-0.02-.06-0.04-0.117-0.06-0.176-0.21-.64-0.37-1.236-0.51-1.764-0.09-.335-0.18-0.651-0.26-0.928-0.03-.1-0.07-0.207-0.1-0.32-0.07-.222-0.15-0.47-0.22-0.728a1.317,1.317,0,0,1-.05-0.191c-0.02-.1-0.05-0.2-0.06-0.3a2.63,2.63,0,0,1-.05-0.39,0.493,0.493,0,0,1-.01-0.121V90.877a1.856,1.856,0,0,1,.04-0.412,1.264,1.264,0,0,1,.55-0.84l0.03-.021c0.05-.032.09-0.062,0.14-0.092a1.4,1.4,0,0,1,.66-0.257,1.189,1.189,0,0,1,.42.047A2.192,2.192,0,0,1,1510.27,89.5Zm-0.37-1.421c-0.05.12-.1,0.244-0.15,0.369s-0.1.274-.16,0.413a2.016,2.016,0,0,0-1.22.437l-0.03.021a1.71,1.71,0,0,0-.78,1.237,0.143,0.143,0,0,0-.01.064l-0.12-.066h0a1.9,1.9,0,0,0-.76-0.34,2.8,2.8,0,0,1-.01-0.293c-0.01-.133-0.01-0.27-0.01-0.412V89.432c0.23-.022.47-0.055,0.7-0.1a7.81,7.81,0,0,0,.78-0.189,5.8,5.8,0,0,0,.76-0.289,3.759,3.759,0,0,0,.69-0.431,3.529,3.529,0,0,1-.71.393,5.321,5.321,0,0,1-.75.245c-0.26.063-.52,0.109-0.77,0.144s-0.47.052-.7,0.059v-0.4c0.19-.013.38-0.03,0.58-0.056a7.492,7.492,0,0,0,.78-0.15,5.641,5.641,0,0,0,.77-0.252,3.646,3.646,0,0,0,.71-0.4,3.654,3.654,0,0,1-.72.359,5.739,5.739,0,0,1-.77.207,6.718,6.718,0,0,1-.77.1c-0.19.016-.39,0.023-0.58,0.024V88.4a7.468,7.468,0,0,0,1.27-.224,4.02,4.02,0,0,0,1.36-.62,4,4,0,0,1-1.37.536,7.078,7.078,0,0,1-1.27.145V87.832a7.356,7.356,0,0,0,1.23-.2,4.086,4.086,0,0,0,1.37-.6,3.971,3.971,0,0,1-1.38.519,6.965,6.965,0,0,1-1.23.127c0-.1-0.01-0.21-0.01-0.314a7.364,7.364,0,0,0,1.21-.21,3.951,3.951,0,0,0,1.31-.592,3.91,3.91,0,0,1-1.32.507,7.009,7.009,0,0,1-1.22.133,2.731,2.731,0,0,0-.02-0.287,7.147,7.147,0,0,0,1.16-.207,3.946,3.946,0,0,0,1.31-.591,3.844,3.844,0,0,1-1.32.507,6.966,6.966,0,0,1-1.17.133c-0.01-.114-0.02-0.225-0.03-0.334a7.284,7.284,0,0,0,1.18-.211,3.98,3.98,0,0,0,1.31-.589,3.956,3.956,0,0,1-1.32.5,7,7,0,0,1-1.19.135,0.036,0.036,0,0,0-.01-0.03c-0.01-.134-0.03-0.262-0.04-0.385,0.16-.01.31-0.024,0.47-0.043a7.614,7.614,0,0,0,.79-0.138,5.548,5.548,0,0,0,.77-0.241,3.588,3.588,0,0,0,.71-0.389,3.6,3.6,0,0,1-.72.349,5.632,5.632,0,0,1-.77.2,7.218,7.218,0,0,1-.77.093c-0.17.011-.33,0.015-0.5,0.015-0.02-.232-0.03-0.44-0.03-0.615,0.49,0.187,1.61.379,3.37-.648a3.767,3.767,0,0,0-.39,1.663,4.083,4.083,0,0,0,.14.948c0.04,0.119.07,0.237,0.11,0.355C1509.72,87.626,1509.81,87.858,1509.9,88.077Zm-1.61-4.618a2.006,2.006,0,0,1,1.84.281c0,0.005,0,.008.01,0.013-2.08,1.419-3.26,1.076-3.61.911a2.33,2.33,0,0,1,.77-0.782A3.526,3.526,0,0,1,1508.29,83.459Zm2.6,45.42q-2.4-1.474-5.43-3.784a132.732,132.732,0,0,1-13.81-11.816q-5.52-5.532-9.67-10.07a0.711,0.711,0,0,1,.3-0.571c1.77-1.556,3.58-3.068,5.41-4.544s3.6-2.861,5.28-4.169q4.6-3.517,7.8-5.861c2.14-1.563,3.92-2.835,5.36-3.818l0.69-.472a1.974,1.974,0,0,0-.84,1.325,8.8,8.8,0,0,0,.1,1.233,14.257,14.257,0,0,1,.13,1.51c0.01,0.224.01,0.447,0.01,0.668a0.267,0.267,0,0,0-.1.026,3.09,3.09,0,0,0-1.41,1.062,3.793,3.793,0,0,0-1.6,1.968l-0.02.031a11.446,11.446,0,0,0-1.46,2.7,21.605,21.605,0,0,0-.94,3.11,28.561,28.561,0,0,0-.52,3.124c-0.03.27-.07,0.548-0.11,0.832a18.369,18.369,0,0,0-.21,2.29c-0.01.934,0.03,1.938,0.12,3.068,0.06,0.71.18,1.421,0.31,2.174,0.05,0.267.09,0.539,0.14,0.815a25.176,25.176,0,0,0,.6,2.871,23.943,23.943,0,0,0,.93,2.757,17.518,17.518,0,0,0,1.12,2.052c0.09,0.158.19,0.314,0.28,0.471a23.974,23.974,0,0,0,1.57,2.414,26.352,26.352,0,0,0,1.85,2.219,15.291,15.291,0,0,0,1.54,1.339c0.24,0.187.47,0.365,0.69,0.547,0.32,0.275.62,0.557,0.91,0.829a12.238,12.238,0,0,0,1.28,1.093,19.707,19.707,0,0,0,2.04,1.2c0.21,0.109.4,0.206,0.55,0.292a22.264,22.264,0,0,0,2.99,1.22c0.63,0.218,1.3.416,2.01,0.626,0.36,0.109.74,0.22,1.11,0.334,0.48,0.15.96,0.323,1.43,0.491,0.57,0.207,1.11.4,1.64,0.551a24.734,24.734,0,0,0,3,.61l0.27,0.041a3.345,3.345,0,0,0,1.16-.021,27.414,27.414,0,0,1-3.17.5,20.561,20.561,0,0,1-4.47-.007,20.2,20.2,0,0,1-4.26-1.018A24.492,24.492,0,0,1,1510.89,128.879Z" transform="translate(-1400 -80)"/>
</svg>
